<?xml version="1.0" encoding="UTF-8" standalone="no"?>
<!DOCTYPE svg PUBLIC "-//W3C//DTD SVG 1.1//EN"
 "http://www.w3.org/Graphics/SVG/1.1/DTD/svg11.dtd">
<!-- Generated by graphviz version 2.38.0 (20140413.2041)
 -->
<!-- Title: %3 Pages: 1 -->
<svg width="710pt" height="332pt"
 viewBox="0.00 0.00 710.44 332.00" xmlns="http://www.w3.org/2000/svg" xmlns:xlink="http://www.w3.org/1999/xlink">
<g id="graph0" class="graph" transform="scale(1 1) rotate(0) translate(4 328)">
<title>%3</title>
<polygon fill="white" stroke="none" points="-4,4 -4,-328 706.442,-328 706.442,4 -4,4"/>
<!-- alexxerth -->
<g id="node1" class="node"><title>alexxerth</title>
<ellipse fill="none" stroke="black" cx="449.146" cy="-306" rx="54.6905" ry="18"/>
<text text-anchor="middle" x="449.146" y="-302.3" font-family="Times,serif" font-size="14.00">alexxerth</text>
</g>
<!-- bucket -->
<g id="node2" class="node"><title>bucket</title>
<ellipse fill="none" stroke="black" cx="305.146" cy="-234" rx="42.7926" ry="18"/>
<text text-anchor="middle" x="305.146" y="-230.3" font-family="Times,serif" font-size="14.00">bucket</text>
</g>
<!-- alexxerth&#45;&gt;bucket -->
<g id="edge1" class="edge"><title>alexxerth&#45;&gt;bucket</title>
<path fill="none" stroke="black" stroke-width="6" d="M415.923,-291.503C392.456,-280.818 361.292,-265.768 337.93,-253.887"/>
<polygon fill="black" stroke="black" stroke-width="6" points="340.052,-249.075 328.758,-249.176 335.255,-258.415 340.052,-249.075"/>
</g>
<!-- woddf2 -->
<g id="node3" class="node"><title>woddf2</title>
<ellipse fill="none" stroke="black" cx="559.146" cy="-234" rx="44.6926" ry="18"/>
<text text-anchor="middle" x="559.146" y="-230.3" font-family="Times,serif" font-size="14.00">woddf2</text>
</g>
<!-- alexxerth&#45;&gt;woddf2 -->
<g id="edge3" class="edge"><title>alexxerth&#45;&gt;woddf2</title>
<path fill="none" stroke="black" d="M468.346,-289.116C483.589,-278.647 505.111,-264.887 523.439,-253.862"/>
<polygon fill="black" stroke="black" points="525.328,-256.811 532.139,-248.695 521.754,-250.792 525.328,-256.811"/>
</g>
<!-- tanuki -->
<g id="node4" class="node"><title>tanuki</title>
<ellipse fill="none" stroke="black" cx="662.146" cy="-234" rx="40.0939" ry="18"/>
<text text-anchor="middle" x="662.146" y="-230.3" font-family="Times,serif" font-size="14.00">tanuki</text>
</g>
<!-- alexxerth&#45;&gt;tanuki -->
<g id="edge4" class="edge"><title>alexxerth&#45;&gt;tanuki</title>
<path fill="none" stroke="black" stroke-width="3" d="M483.365,-291.848C514.88,-281.269 562.581,-265.925 604.146,-252 608.708,-250.472 613.501,-248.84 618.311,-247.216"/>
<polygon fill="black" stroke="black" stroke-width="3" points="619.768,-250.419 628.14,-243.927 617.546,-243.781 619.768,-250.419"/>
</g>
<!-- asarkar -->
<g id="node6" class="node"><title>asarkar</title>
<ellipse fill="none" stroke="black" cx="355.146" cy="-90" rx="46.2923" ry="18"/>
<text text-anchor="middle" x="355.146" y="-86.3" font-family="Times,serif" font-size="14.00">asarkar</text>
</g>
<!-- alexxerth&#45;&gt;asarkar -->
<g id="edge8" class="edge"><title>alexxerth&#45;&gt;asarkar</title>
<path fill="none" stroke="black" d="M439.559,-287.892C428.147,-257.745 409.894,-193.654 384.146,-144 379.194,-134.452 372.685,-124.691 366.915,-116.191"/>
<polygon fill="black" stroke="black" points="369.773,-114.168 361.267,-107.851 363.977,-118.094 369.773,-114.168"/>
</g>
<!-- rcombs -->
<g id="node9" class="node"><title>rcombs</title>
<ellipse fill="none" stroke="black" cx="169.146" cy="-162" rx="45.4919" ry="18"/>
<text text-anchor="middle" x="169.146" y="-158.3" font-family="Times,serif" font-size="14.00">rcombs</text>
</g>
<!-- alexxerth&#45;&gt;rcombs -->
<g id="edge14" class="edge"><title>alexxerth&#45;&gt;rcombs</title>
<path fill="none" stroke="black" stroke-width="3" d="M397.427,-299.981C353.794,-293.739 291.334,-280.234 244.146,-252 217.268,-235.918 193.49,-208.844 179.873,-188.771"/>
<polygon fill="black" stroke="black" stroke-width="3" points="182.68,-186.662 174.358,-180.105 176.775,-190.42 182.68,-186.662"/>
</g>
<!-- frowardd -->
<g id="node10" class="node"><title>frowardd</title>
<ellipse fill="none" stroke="black" cx="242.146" cy="-18" rx="53.0913" ry="18"/>
<text text-anchor="middle" x="242.146" y="-14.3" font-family="Times,serif" font-size="14.00">frowardd</text>
</g>
<!-- alexxerth&#45;&gt;frowardd -->
<g id="edge26" class="edge"><title>alexxerth&#45;&gt;frowardd</title>
<path fill="none" stroke="black" d="M447.755,-287.784C449.633,-244.804 459.804,-131.951 401.146,-72 375.172,-45.4533 336.036,-32.1661 303.032,-25.5323"/>
<polygon fill="black" stroke="black" points="303.476,-22.0553 293.007,-23.6798 302.204,-28.9388 303.476,-22.0553"/>
</g>
<!-- bucket&#45;&gt;alexxerth -->
<g id="edge20" class="edge"><title>bucket&#45;&gt;alexxerth</title>
<path fill="none" stroke="black" d="M335.01,-246.974C358.358,-257.517 390.655,-273.072 415.004,-285.423"/>
<polygon fill="black" stroke="black" points="413.415,-288.542 423.912,-289.983 416.605,-282.311 413.415,-288.542"/>
</g>
<!-- bucket&#45;&gt;bucket -->
<g id="edge21" class="edge"><title>bucket&#45;&gt;bucket</title>
<path fill="none" stroke="black" d="M335.225,-246.943C351.351,-249.142 366.042,-244.828 366.042,-234 366.042,-225.541 357.075,-221.057 345.463,-220.549"/>
<polygon fill="black" stroke="black" points="345.039,-217.065 335.225,-221.057 345.386,-224.057 345.039,-217.065"/>
</g>
<!-- oracle989 -->
<g id="node5" class="node"><title>oracle989</title>
<ellipse fill="none" stroke="black" cx="327.146" cy="-162" rx="57.3905" ry="18"/>
<text text-anchor="middle" x="327.146" y="-158.3" font-family="Times,serif" font-size="14.00">oracle989</text>
</g>
<!-- bucket&#45;&gt;oracle989 -->
<g id="edge5" class="edge"><title>bucket&#45;&gt;oracle989</title>
<path fill="none" stroke="black" d="M310.471,-216.055C312.921,-208.261 315.888,-198.822 318.635,-190.079"/>
<polygon fill="black" stroke="black" points="322.057,-190.865 321.717,-180.275 315.379,-188.766 322.057,-190.865"/>
</g>
<!-- bucket&#45;&gt;rcombs -->
<g id="edge19" class="edge"><title>bucket&#45;&gt;rcombs</title>
<path fill="none" stroke="black" d="M275.853,-220.647C253.735,-210.091 223.592,-194.718 200.913,-182.502"/>
<polygon fill="black" stroke="black" points="202.461,-179.36 192.004,-177.654 199.114,-185.508 202.461,-179.36"/>
</g>
<!-- woddf2&#45;&gt;alexxerth -->
<g id="edge2" class="edge"><title>woddf2&#45;&gt;alexxerth</title>
<path fill="none" stroke="black" stroke-width="2" d="M540.568,-250.457C525.667,-260.718 504.503,-274.277 486.229,-285.309"/>
<polygon fill="black" stroke="black" stroke-width="2" points="484.327,-282.368 477.531,-290.496 487.912,-288.38 484.327,-282.368"/>
</g>
<!-- tanuki&#45;&gt;alexxerth -->
<g id="edge6" class="edge"><title>tanuki&#45;&gt;alexxerth</title>
<path fill="none" stroke="black" d="M635.249,-247.53C630.886,-249.05 626.415,-250.57 622.146,-252 581.474,-265.625 534.929,-280.61 500.26,-291.159"/>
<polygon fill="black" stroke="black" points="498.92,-287.908 490.358,-294.148 500.942,-294.609 498.92,-287.908"/>
</g>
<!-- asarkar&#45;&gt;alexxerth -->
<g id="edge7" class="edge"><title>asarkar&#45;&gt;alexxerth</title>
<path fill="none" stroke="black" d="M375.762,-106.462C385.078,-116.642 395.162,-130.532 402.146,-144 425.279,-188.611 442.362,-244.875 448.617,-277.707"/>
<polygon fill="black" stroke="black" points="445.218,-278.604 450.316,-287.892 452.122,-277.452 445.218,-278.604"/>
</g>
<!-- asarkar&#45;&gt;rcombs -->
<g id="edge11" class="edge"><title>asarkar&#45;&gt;rcombs</title>
<path fill="none" stroke="black" d="M325.985,-104.002C295.535,-116.122 247.666,-134.16 212.75,-146.685"/>
<polygon fill="black" stroke="black" points="211.516,-143.409 203.271,-150.062 213.866,-150.003 211.516,-143.409"/>
</g>
<!-- ten -->
<g id="node7" class="node"><title>ten</title>
<ellipse fill="none" stroke="black" cx="137.146" cy="-18" rx="27" ry="18"/>
<text text-anchor="middle" x="137.146" y="-14.3" font-family="Times,serif" font-size="14.00">ten</text>
</g>
<!-- science -->
<g id="node8" class="node"><title>science</title>
<ellipse fill="none" stroke="black" cx="130.146" cy="-90" rx="46.2923" ry="18"/>
<text text-anchor="middle" x="130.146" y="-86.3" font-family="Times,serif" font-size="14.00">science</text>
</g>
<!-- ten&#45;&gt;science -->
<g id="edge9" class="edge"><title>ten&#45;&gt;science</title>
<path fill="none" stroke="black" stroke-width="3" d="M141.329,-35.789C141.387,-43.677 140.669,-53.2754 139.417,-62.1371"/>
<polygon fill="black" stroke="black" stroke-width="3" points="135.957,-61.6076 137.719,-72.055 142.857,-62.7894 135.957,-61.6076"/>
</g>
<!-- science&#45;&gt;ten -->
<g id="edge10" class="edge"><title>science&#45;&gt;ten</title>
<path fill="none" stroke="black" stroke-width="2" d="M125.962,-72.055C125.913,-64.0282 126.663,-54.2569 127.955,-45.2979"/>
<polygon fill="black" stroke="black" stroke-width="2" points="131.427,-45.7612 129.706,-35.307 124.532,-44.5525 131.427,-45.7612"/>
</g>
<!-- science&#45;&gt;frowardd -->
<g id="edge15" class="edge"><title>science&#45;&gt;frowardd</title>
<path fill="none" stroke="black" stroke-width="6" d="M153.625,-74.3257C169.684,-64.2887 191.204,-50.8389 209.004,-39.7139"/>
<polygon fill="black" stroke="black" stroke-width="6" points="212.227,-43.8905 217.924,-34.1384 206.662,-34.9865 212.227,-43.8905"/>
</g>
<!-- kliment -->
<g id="node11" class="node"><title>kliment</title>
<ellipse fill="none" stroke="black" cx="46.1459" cy="-18" rx="46.2923" ry="18"/>
<text text-anchor="middle" x="46.1459" y="-14.3" font-family="Times,serif" font-size="14.00">kliment</text>
</g>
<!-- science&#45;&gt;kliment -->
<g id="edge25" class="edge"><title>science&#45;&gt;kliment</title>
<path fill="none" stroke="black" d="M106.696,-74.1548C94.4244,-64.8942 79.6301,-52.778 67.6587,-42.2611"/>
<polygon fill="black" stroke="black" points="69.6687,-39.3623 59.8875,-35.2905 64.9945,-44.5732 69.6687,-39.3623"/>
</g>
<!-- rcombs&#45;&gt;alexxerth -->
<g id="edge13" class="edge"><title>rcombs&#45;&gt;alexxerth</title>
<path fill="none" stroke="black" stroke-width="2" d="M186.186,-179.049C203.332,-199.118 230.604,-233.128 262.146,-252 301.437,-275.509 351.316,-288.806 389.747,-296.202"/>
<polygon fill="black" stroke="black" stroke-width="2" points="389.291,-299.677 399.76,-298.046 390.559,-292.793 389.291,-299.677"/>
</g>
<!-- rcombs&#45;&gt;bucket -->
<g id="edge18" class="edge"><title>rcombs&#45;&gt;bucket</title>
<path fill="none" stroke="black" d="M198.972,-175.608C221.148,-186.207 251.176,-201.53 273.712,-213.677"/>
<polygon fill="black" stroke="black" points="272.103,-216.786 282.559,-218.496 275.452,-210.639 272.103,-216.786"/>
</g>
<!-- rcombs&#45;&gt;asarkar -->
<g id="edge12" class="edge"><title>rcombs&#45;&gt;asarkar</title>
<path fill="none" stroke="black" d="M198.307,-147.998C228.634,-135.927 276.24,-117.985 311.118,-105.467"/>
<polygon fill="black" stroke="black" points="312.349,-108.744 320.593,-102.089 309.999,-102.15 312.349,-108.744"/>
</g>
<!-- rcombs&#45;&gt;science -->
<g id="edge16" class="edge"><title>rcombs&#45;&gt;science</title>
<path fill="none" stroke="black" d="M159.705,-144.055C155.106,-135.801 149.48,-125.701 144.374,-116.538"/>
<polygon fill="black" stroke="black" points="147.424,-114.821 139.5,-107.789 141.309,-118.228 147.424,-114.821"/>
</g>
<!-- rcombs&#45;&gt;frowardd -->
<g id="edge17" class="edge"><title>rcombs&#45;&gt;frowardd</title>
<path fill="none" stroke="black" d="M177.807,-144.153C190.429,-119.6 213.988,-73.7727 228.827,-44.9083"/>
<polygon fill="black" stroke="black" points="232.037,-46.3188 233.496,-35.825 225.812,-43.1183 232.037,-46.3188"/>
</g>
<!-- frowardd&#45;&gt;alexxerth -->
<g id="edge22" class="edge"><title>frowardd&#45;&gt;alexxerth</title>
<path fill="none" stroke="black" d="M294.602,-21.7751C334.202,-26.4827 386.849,-38.9909 419.146,-72 473.813,-127.872 468.699,-229.692 458.802,-278.079"/>
<polygon fill="black" stroke="black" points="455.329,-277.568 456.499,-288.098 462.151,-279.137 455.329,-277.568"/>
</g>
<!-- frowardd&#45;&gt;bucket -->
<g id="edge23" class="edge"><title>frowardd&#45;&gt;bucket</title>
<path fill="none" stroke="black" d="M241.06,-36.2655C239.814,-66.6558 240.178,-131.112 261.146,-180 265.766,-190.771 273.296,-201.062 280.832,-209.663"/>
<polygon fill="black" stroke="black" points="278.31,-212.09 287.671,-217.051 283.447,-207.335 278.31,-212.09"/>
</g>
<!-- kliment&#45;&gt;science -->
<g id="edge24" class="edge"><title>kliment&#45;&gt;science</title>
<path fill="none" stroke="black" stroke-width="2" d="M69.4261,-33.717C81.8576,-43.0894 96.9136,-55.425 109.004,-66.0654"/>
<polygon fill="black" stroke="black" stroke-width="2" points="106.686,-68.6871 116.464,-72.7646 111.363,-63.4789 106.686,-68.6871"/>
</g>
</g>
</svg>
